<svg width="24" height="24" viewBox="0 0 24 24" fill="none" xmlns="http://www.w3.org/2000/svg">
<path d="M12 2C17.5229 2 21.9999 6.47713 22 12C22 17.523 17.523 22 12 22C6.47713 21.9999 2 17.5229 2 12C2.00012 6.47721 6.47721 2.00012 12 2ZM12.0918 15.5C11.5396 15.5 11.0919 15.9478 11.0918 16.5C11.0918 17.0523 11.5395 17.5 12.0918 17.5C12.6439 17.4997 13.0918 17.0521 13.0918 16.5C13.0917 15.948 12.6438 15.5003 12.0918 15.5ZM12 6.5C11.4478 6.5 11.0001 6.94783 11 7.5V12.5C11 13.0523 11.4477 13.5 12 13.5C12.5523 13.5 13 13.0523 13 12.5V7.5C12.9999 6.94783 12.5522 6.5 12 6.5Z" fill="currentColor"/>
</svg>
